<?xml version="1.0" encoding="UTF-8" standalone="no"?>
<!-- Generator: Adobe Illustrator 18.0.0, SVG Export Plug-In . SVG Version: 6.00 Build 0)  -->

<svg
   xmlns:dc="http://purl.org/dc/elements/1.1/"
   xmlns:cc="http://creativecommons.org/ns#"
   xmlns:rdf="http://www.w3.org/1999/02/22-rdf-syntax-ns#"
   xmlns:svg="http://www.w3.org/2000/svg"
   xmlns="http://www.w3.org/2000/svg"
   xmlns:sodipodi="http://sodipodi.sourceforge.net/DTD/sodipodi-0.dtd"
   xmlns:inkscape="http://www.inkscape.org/namespaces/inkscape"
   version="1.1"
   x="0px"
   y="0px"
   viewBox="0 0 512 512"
   enable-background="new 0 0 512 512"
   xml:space="preserve"
   id="svg20"
   sodipodi:docname="icon.svg"
   inkscape:version="0.92.3 (2405546, 2018-03-11)"
   inkscape:export-filename="/home/michell/Downloads/icon.png"
   inkscape:export-xdpi="96"
   inkscape:export-ydpi="96"><metadata
   id="metadata26"><rdf:RDF><cc:Work
       rdf:about=""><dc:format>image/svg+xml</dc:format><dc:type
         rdf:resource="http://purl.org/dc/dcmitype/StillImage" /></cc:Work></rdf:RDF></metadata><defs
   id="defs24"><filter
     inkscape:collect="always"
     style="color-interpolation-filters:sRGB"
     id="filter1147"
     x="-0.065829757"
     width="1.1316595"
     y="-0.055118786"
     height="1.1102376"><feGaussianBlur
       inkscape:collect="always"
       stdDeviation="2.9033746"
       id="feGaussianBlur1149" /></filter></defs><sodipodi:namedview
   pagecolor="#ffffff"
   bordercolor="#666666"
   borderopacity="1"
   objecttolerance="10"
   gridtolerance="10"
   guidetolerance="10"
   inkscape:pageopacity="0"
   inkscape:pageshadow="2"
   inkscape:window-width="1920"
   inkscape:window-height="1029"
   id="namedview22"
   showgrid="false"
   inkscape:zoom="0.921875"
   inkscape:cx="102.56967"
   inkscape:cy="260.87781"
   inkscape:window-x="0"
   inkscape:window-y="0"
   inkscape:window-maximized="1"
   inkscape:current-layer="svg20" />
<g
   id="Background">
	<circle
   fill="#282C34"
   cx="256"
   cy="256"
   r="247"
   id="circle2" />
</g>
<g
   id="Colors_1_">
	<g
   id="g17">
		<path
   fill="#DE6A73"
   d="M257.9,152.3c10.3,0,20.6,1.5,30.9,4.3c7.5,2.1,13.9-0.2,17.8-7c7.4-13,6.7-11.9,21.9-39.1    c0.7-1.2,0.8-3.4,0.8-4.8c0-1.6-0.2-2.7-0.8-4.2c-2.8-6.5-8.8-9.3-14.7-11.8c-13.7-5.6-28.2-7.6-42.8-8.7    c-4.4-0.3-8.8-0.5-13.1-0.6h0c-4.4,0-8.7,0.2-13.1,0.6c-14.6,1.1-29.1,3.1-42.8,8.7c-5.9,2.4-11.9,5.3-14.7,11.8    c-0.6,1.5-0.8,2.6-0.8,4.2c0,1.4,0.2,3.6,0.8,4.8c15.2,27.2,14.5,26.1,21.9,39.1c3.9,6.8,10.3,9.1,17.8,7    C237.3,153.8,247.6,152.4,257.9,152.3"
   id="path5" />
		<path
   fill="#C678DD"
   d="M346.1,204.8c5.2,8.9,9.2,18.5,11.9,28.9c2,7.5,7.2,11.9,15.1,11.8c14.9-0.2,13.7-0.2,44.8-0.9    c1.4,0,3.4-1,4.6-1.7c1.4-0.8,2.2-1.5,3.2-2.8c4.2-5.7,3.6-12.3,2.7-18.7c-2.1-14.6-7.7-28.2-14.1-41.3c-1.9-4-4-7.8-6.1-11.6l0,0    c-2.2-3.7-4.6-7.4-7.1-11c-8.4-12-17.4-23.6-29.2-32.5c-5.1-3.9-10.6-7.6-17.6-6.7c-1.6,0.2-2.6,0.6-4,1.4c-1.2,0.7-3,2-3.7,3.2    c-15.8,26.8-15.2,25.7-22.6,38.7c-3.9,6.8-2.6,13.5,3,18.9C334.4,187.7,340.9,195.9,346.1,204.8"
   id="path7" />
		<path
   fill="#61AFEF"
   d="M344.2,309.6c-5.3,8.9-11.8,17-19.5,24.4c-5.6,5.4-6.9,12.1-3.1,18.9c7.4,13,6.8,11.9,22.5,38.8    c0.7,1.2,2.5,2.5,3.7,3.2c1.4,0.8,2.4,1.2,4,1.4c7,0.9,12.5-2.8,17.6-6.7c11.8-8.9,20.9-20.4,29.3-32.4c2.5-3.6,4.9-7.3,7.2-11    l0,0c2.2-3.8,4.2-7.6,6.2-11.6c6.5-13.1,12.2-26.7,14.3-41.3c0.9-6.3,1.5-12.9-2.6-18.7c-0.9-1.3-1.8-2-3.2-2.8    c-1.2-0.7-3.2-1.7-4.6-1.7c-31.1-0.8-29.9-0.8-44.8-1.1c-7.8-0.1-13.1,4.2-15.1,11.8C353.4,291.1,349.4,300.7,344.2,309.6"
   id="path9" />
		<path
   fill="#98C379"
   d="M257.9,359.7c10.3,0,20.6-1.5,30.9-4.3c7.5-2.1,13.9,0.2,17.8,7c7.4,13,6.7,11.9,21.9,39.1    c0.7,1.2,0.8,3.4,0.8,4.8c0,1.6-0.2,2.7-0.8,4.2c-2.8,6.5-8.8,9.3-14.7,11.8c-13.7,5.6-28.2,7.6-42.8,8.7    c-4.4,0.3-8.8,0.5-13.1,0.6h0c-4.4,0-8.7-0.2-13.1-0.6c-14.6-1.1-29.1-3.1-42.8-8.7c-5.9-2.4-11.9-5.3-14.7-11.8    c-0.6-1.5-0.8-2.6-0.8-4.2c0-1.4,0.2-3.6,0.8-4.8c15.2-27.2,14.5-26.1,21.9-39.1c3.9-6.8,10.3-9.1,17.8-7    C237.3,358.2,247.6,359.6,257.9,359.7"
   id="path11" />
		<path
   fill="#D19A66"
   d="M167.8,309.6c5.3,8.9,11.8,17,19.5,24.4c5.6,5.4,6.9,12.1,3.1,18.9c-7.4,13-6.8,11.9-22.5,38.8    c-0.7,1.2-2.5,2.5-3.7,3.2c-1.4,0.8-2.4,1.2-4,1.4c-7,0.9-12.5-2.8-17.6-6.7c-11.8-8.9-20.9-20.4-29.3-32.4    c-2.5-3.6-4.9-7.3-7.2-11l0,0c-2.2-3.8-4.2-7.6-6.2-11.6c-6.5-13.1-12.2-26.7-14.3-41.3c-0.9-6.3-1.5-12.9,2.6-18.7    c0.9-1.3,1.8-2,3.2-2.8c1.2-0.7,3.2-1.7,4.6-1.7c31.1-0.8,29.9-0.8,44.8-1.1c7.8-0.1,13.1,4.2,15.1,11.8    C158.6,291.1,162.6,300.7,167.8,309.6"
   id="path13" />
		<path
   fill="#ABB2BF"
   d="M165.9,204.8c-5.2,8.9-9.2,18.5-11.9,28.9c-2,7.5-7.2,11.9-15.1,11.8c-14.9-0.2-13.7-0.2-44.8-0.9    c-1.4,0-3.4-1-4.6-1.7c-1.4-0.8-2.2-1.5-3.2-2.8c-4.2-5.7-3.6-12.3-2.7-18.7c2.1-14.6,7.7-28.2,14.1-41.3c1.9-4,4-7.8,6.1-11.6    l0,0c2.2-3.7,4.6-7.4,7.1-11c8.4-12,17.4-23.6,29.2-32.5c5.1-3.9,10.6-7.6,17.6-6.7c1.6,0.2,2.6,0.6,4,1.4c1.2,0.7,3,2,3.7,3.2    c15.8,26.8,15.2,25.7,22.6,38.7c3.9,6.8,2.6,13.5-3,18.9C177.6,187.7,171.1,195.9,165.9,204.8"
   id="path15" />
	</g>
</g>
<path
   style="fill:#cc241d;fill-opacity:1;stroke-width:0.38351554"
   d="m 154.09797,395.76922 c -7.67055,-2.10711 -19.2027,-11.56178 -30.16497,-24.73085 -17.68977,-21.25087 -32.431867,-49.86584 -37.113314,-72.03835 -2.179259,-10.32151 -2.1905,-16.73344 -0.03758,-21.43604 1.510862,-3.30015 2.736796,-4.59339 5.713151,-6.0268 l 2.733075,-1.31625 18.600508,-0.40639 c 10.23027,-0.22352 20.75777,-0.49458 23.39444,-0.60237 11.37286,-0.46492 16.02194,2.74527 18.94814,13.0837 5.4903,19.39754 14.21815,34.4517 28.67303,49.45645 6.08907,6.3207 7.3724,8.61241 7.39387,13.20359 0.007,1.58387 -0.20055,3.58718 -0.46213,4.4518 -0.82413,2.72409 -23.23857,41.42095 -25.14532,43.41152 -2.8073,2.93072 -8.08277,4.17245 -12.5329,2.94999 z"
   id="path845"
   inkscape:connector-curvature="0" /><path
   style="fill:#cc241d;fill-opacity:1;stroke-width:0.27118644"
   d="m 154.73029,395.77204 c -6.96081,-1.50891 -18.08298,-10.20262 -28.68085,-22.41856 -18.82187,-21.69559 -34.858082,-52.52826 -39.373535,-75.70315 -2.037665,-10.45801 -1.80091,-16.36134 0.857746,-21.38735 1.080217,-2.04207 2.645713,-3.4487 5.353332,-4.81006 l 2.204783,-1.10855 16.324244,-0.3883 c 8.97834,-0.21357 19.49713,-0.46334 23.37509,-0.55505 8.25783,-0.1953 10.42063,0.0645 13.59464,1.63322 3.80036,1.87824 5.81741,5.01813 8.10645,12.61914 5.7157,18.97949 13.3021,32.01181 27.6005,47.41355 4.8255,5.19786 5.93992,6.61412 7.07659,8.99323 0.80511,1.68516 0.84216,1.91396 0.84216,5.20066 v 3.43795 l -1.69692,3.36283 c -2.80421,5.55718 -16.36673,29.10286 -21.24485,36.88288 -1.05108,1.67634 -2.35984,3.51144 -2.90837,4.078 -1.25852,1.29991 -3.18624,2.24888 -5.61221,2.76275 -2.29978,0.48715 -3.52348,0.48437 -5.8188,-0.0132 z"
   id="path847"
   inkscape:connector-curvature="0" /><path
   style="fill:#a6ac54;fill-opacity:1;stroke-width:0.54237288"
   d="m 110.24567,244.77649 c -16.214903,-0.38788 -17.37786,-0.48299 -19.709758,-1.61185 -5.152806,-2.49442 -7.598172,-8.26062 -7.110102,-16.76568 0.744689,-12.97689 5.860312,-28.89828 15.405554,-47.94683 12.856566,-25.65663 35.357296,-52.15243 49.560196,-58.35973 5.98367,-2.61513 12.0331,-1.93309 15.54013,1.75209 1.5715,1.65132 19.70614,32.07255 23.96362,40.19945 1.68411,3.21474 1.9521,4.22888 1.93481,7.32203 -0.0265,4.7484 -1.34218,7.20098 -7.01763,13.08198 -13.62778,14.1213 -22.74999,29.65677 -28.01836,47.71634 -2.05944,7.05961 -3.06525,9.05418 -5.8215,11.54428 -4.30168,3.88631 -4.35133,3.89024 -38.72696,3.06792 z"
   id="path849"
   inkscape:connector-curvature="0" /><path
   style="fill:#fabd2f;fill-opacity:1;stroke-width:0.54237288"
   d="m 215.59759,155.4649 c -1.56807,-0.82034 -3.5313,-2.34577 -4.36275,-3.38983 -0.83144,-1.04407 -6.5766,-10.92882 -12.76702,-21.96611 -10.27369,-18.3176 -11.27569,-20.33477 -11.48903,-23.12896 -0.31427,-4.11627 0.55399,-6.42675 3.71479,-9.885166 3.22743,-3.531331 7.67975,-5.95853 16.51254,-9.001879 27.83177,-9.58948 73.59436,-9.599548 101.34947,-0.0223 8.29169,2.861155 12.32869,4.925085 15.57773,7.964185 5.0144,4.69038 6.23279,10.28925 3.40301,15.63776 -4.85791,9.18182 -21.68845,38.82201 -22.94167,40.40247 -0.82789,1.04406 -2.78822,2.56949 -4.35629,3.38983 -3.66184,1.91569 -7.43586,1.96123 -14.56108,0.17569 -10.11645,-2.53514 -16.45016,-3.28085 -27.75931,-3.26832 -11.30682,0.0125 -17.83358,0.78098 -27.7593,3.26832 -7.12522,1.78554 -10.89924,1.74 -14.56109,-0.17569 z"
   id="path851"
   inkscape:connector-curvature="0" /><path
   style="fill:#83a598;fill-opacity:1;stroke-width:0.54237288"
   d="m 367.57635,244.34543 c -3.0252,-1.05921 -6.15926,-3.64456 -7.4838,-6.17353 -0.43104,-0.82301 -2.08461,-5.4603 -3.67459,-10.30508 -5.91261,-18.01621 -13.74436,-31.22322 -26.49322,-44.67664 -7.25123,-7.65197 -8.93525,-11.48522 -7.4768,-17.01903 0.95608,-3.62766 23.08645,-41.86563 25.80538,-44.58784 3.82218,-3.82679 10.08563,-4.12027 16.62728,-0.77908 14.19007,7.24768 35.23527,32.08914 47.45153,56.0111 10.60418,20.76519 16.00041,37.83441 16.10832,50.95352 0.0515,6.25915 -0.0168,6.67958 -1.58389,9.74907 -1.14631,2.24535 -2.35713,3.69101 -4.03547,4.81821 -2.2119,1.48552 -2.90487,1.63992 -8.93858,1.99152 -3.59744,0.20964 -14.8391,0.52659 -24.98148,0.70435 -17.08147,0.29938 -18.65325,0.24878 -21.32468,-0.68657 z"
   id="path853"
   inkscape:connector-curvature="0" /><path
   style="fill:#d3869b;fill-opacity:1;stroke-width:0.54237288"
   d="m 348.70701,395.03918 c -1.22536,-0.60655 -2.72825,-1.64364 -3.33975,-2.30465 -1.84054,-1.98955 -23.95255,-40.21226 -24.98044,-43.18108 -0.94145,-2.71913 -0.75706,-7.06273 0.40881,-9.6304 0.56282,-1.23954 3.26988,-4.65649 6.01568,-7.59322 14.91086,-15.94769 23.19733,-29.93397 28.51664,-48.13168 2.68759,-9.19443 5.29658,-12.56573 11.02067,-14.24074 2.63664,-0.77155 5.39957,-0.79444 26.84745,-0.22237 22.17489,0.59146 24.07553,0.71769 26.21409,1.74095 5.40838,2.58781 7.48933,7.60698 7.04042,16.98126 -1.51394,31.61467 -32.46461,84.48521 -60.32921,103.05553 -7.06066,4.70557 -12.71789,5.85116 -17.41436,3.5264 z"
   id="path855"
   inkscape:connector-curvature="0" /><path
   style="fill:#d3869b;fill-opacity:1;stroke-width:0.54237288"
   d="m 350.51647,395.44709 c -3.78753,-1.22233 -5.45112,-3.21391 -12.18235,-14.58422 -7.01427,-11.84842 -14.97393,-25.7965 -16.95591,-29.71265 -1.45625,-2.87737 -1.65014,-7.95696 -0.41497,-10.87176 0.44244,-1.04407 2.72977,-4.07014 5.08297,-6.7246 16.31874,-18.4079 22.84252,-29.09155 28.68155,-46.97032 3.66418,-11.21948 5.67136,-14.26811 10.52034,-15.97893 2.80452,-0.9895 18.50747,-1.1109 39.20122,-0.30308 14.31301,0.55874 15.3512,0.79485 18.41247,4.18749 2.75295,3.05096 3.41338,6.25194 3.04442,14.7558 -1.34304,30.95458 -32.51755,84.04642 -59.92617,102.05745 -5.97583,3.92689 -11.52772,5.41501 -15.46357,4.14482 z"
   id="path857"
   inkscape:connector-curvature="0" /><path
   style="fill:#8ec07c;fill-opacity:1;stroke-width:0.54237288"
   d="m 244.90103,430.84844 c -19.55443,-1.82531 -31.03123,-4.1403 -41.83007,-8.43754 -12.074,-4.80467 -16.70516,-9.82676 -16.07854,-17.43577 0.21217,-2.57646 0.83853,-4.15548 3.50351,-8.83227 1.78483,-3.1322 6.98178,-12.37343 11.54877,-20.53607 4.56699,-8.16264 9.12592,-15.66346 10.13095,-16.66848 4.20812,-4.20813 8.51434,-4.88514 17.36427,-2.72997 9.48584,2.31003 15.58259,3.12384 25.6662,3.42599 11.03359,0.33062 18.98422,-0.50738 30.04445,-3.16671 10.08664,-2.42524 14.1155,-1.87965 18.35502,2.48564 1.95011,2.00796 3.68146,4.94488 16.78045,28.46491 8.24268,14.80022 8.58232,15.53097 8.57088,18.44068 -0.0149,3.77361 -1.29772,6.67474 -4.25266,9.61706 -6.52826,6.50036 -24.72863,12.30012 -45.65689,14.5491 -9.70045,1.04242 -27.26314,1.46594 -34.14634,0.82343 z"
   id="path859"
   inkscape:connector-curvature="0" /><path
   style="opacity:0.95;fill:#b8bb26;fill-opacity:1;stroke-width:1.53406215"
   d="m 92.571073,243.5207 c -16.434402,-3.15445 -7.392134,-45.64117 17.880837,-84.01633 13.99953,-21.25726 35.39483,-40.68918 44.80038,-40.68918 6.16584,0 9.17582,3.45375 21.9605,25.19819 14.94328,25.41585 15.04842,27.09552 2.59743,41.49499 -11.69398,13.524 -19.05919,26.0916 -24.01914,40.98497 -5.95233,17.87324 -6.52751,18.16112 -35.77598,17.90604 -13.17503,-0.1149 -25.52484,-0.51031 -27.444027,-0.87868 z"
   id="path1127"
   inkscape:connector-curvature="0" /><path
   style="opacity:0.95;fill:#fb4934;fill-opacity:1;stroke-width:1.53406215;filter:url(#filter1147)"
   d="m 152.09582,394.8053 c -10.962,-4.47005 -27.19333,-21.08323 -41.0792,-42.04562 -14.315792,-21.6114 -24.927521,-49.32901 -24.927521,-65.11014 0,-7.83469 0.6059,-10.03724 3.579016,-13.01036 3.340418,-3.34041 5.220846,-3.6537 28.206645,-4.69932 33.29449,-1.51455 32.4792,-1.98024 42.53125,24.2933 4.8537,12.68634 11.4014,23.02534 22.90545,36.16835 6.3116,7.21081 8.62793,11.07437 8.62793,14.39111 0,4.62974 -18.78675,39.32691 -25.12569,46.40454 -3.89055,4.34393 -9.52567,5.7254 -14.71788,3.60814 z"
   id="path1129"
   inkscape:connector-curvature="0" /></svg>